solid OpenSCAD_Model
  facet normal 1 -0 0
    outer loop
      vertex 0.5 0.5 5.6
      vertex 0.5 5 1
      vertex 0.5 5 5.6
    endloop
  endfacet
  facet normal 1 0 0
    outer loop
      vertex 0.5 5 1
      vertex 0.5 0.5 5.6
      vertex 0.5 0.5 1
    endloop
  endfacet
  facet normal -1 0 0
    outer loop
      vertex 16.7 0.5 1
      vertex 16.7 5 5.6
      vertex 16.7 5 1
    endloop
  endfacet
  facet normal -1 -0 0
    outer loop
      vertex 16.7 5 5.6
      vertex 16.7 0.5 1
      vertex 16.7 0.5 5.6
    endloop
  endfacet
  facet normal 0 -1 0
    outer loop
      vertex 0.5 5 5.6
      vertex 6.6 5 2
      vertex 6.6 5 5.6
    endloop
  endfacet
  facet normal 0 -1 -0
    outer loop
      vertex 6.6 5 2
      vertex 0.5 5 1
      vertex 10.6 5 2
    endloop
  endfacet
  facet normal 0 -1 0
    outer loop
      vertex 0.5 5 1
      vertex 6.6 5 2
      vertex 0.5 5 5.6
    endloop
  endfacet
  facet normal 0 -1 0
    outer loop
      vertex 10.6 5 2
      vertex 16.7 5 5.6
      vertex 10.6 5 5.6
    endloop
  endfacet
  facet normal 0 -1 0
    outer loop
      vertex 10.6 5 2
      vertex 16.7 5 1
      vertex 16.7 5 5.6
    endloop
  endfacet
  facet normal 0 -1 0
    outer loop
      vertex 16.7 5 1
      vertex 10.6 5 2
      vertex 0.5 5 1
    endloop
  endfacet
  facet normal -0 0 1
    outer loop
      vertex 0.5 5 1
      vertex 16.7 0.5 1
      vertex 16.7 5 1
    endloop
  endfacet
  facet normal 0 0 1
    outer loop
      vertex 16.7 0.5 1
      vertex 0.5 5 1
      vertex 0.5 0.5 1
    endloop
  endfacet
  facet normal 0 1 -0
    outer loop
      vertex 16.7 0.5 1
      vertex 0.5 0.5 5.6
      vertex 16.7 0.5 5.6
    endloop
  endfacet
  facet normal 0 1 0
    outer loop
      vertex 0.5 0.5 5.6
      vertex 16.7 0.5 1
      vertex 0.5 0.5 1
    endloop
  endfacet
  facet normal 1 -0 0
    outer loop
      vertex 6.6 5 5.6
      vertex 6.6 5.5 2
      vertex 6.6 5.5 5.6
    endloop
  endfacet
  facet normal 1 0 0
    outer loop
      vertex 6.6 5.5 2
      vertex 6.6 5 5.6
      vertex 6.6 5 2
    endloop
  endfacet
  facet normal -1 0 0
    outer loop
      vertex 10.6 5 2
      vertex 10.6 5.5 5.6
      vertex 10.6 5.5 2
    endloop
  endfacet
  facet normal -1 -0 0
    outer loop
      vertex 10.6 5.5 5.6
      vertex 10.6 5 2
      vertex 10.6 5 5.6
    endloop
  endfacet
  facet normal -0 0 1
    outer loop
      vertex 6.6 5.5 2
      vertex 10.6 5 2
      vertex 10.6 5.5 2
    endloop
  endfacet
  facet normal 0 0 1
    outer loop
      vertex 10.6 5 2
      vertex 6.6 5.5 2
      vertex 6.6 5 2
    endloop
  endfacet
  facet normal -1 0 0
    outer loop
      vertex 0 0 0
      vertex 0 5.5 5.6
      vertex 0 5.5 0
    endloop
  endfacet
  facet normal -1 -0 0
    outer loop
      vertex 0 5.5 5.6
      vertex 0 0 0
      vertex 0 0 5.6
    endloop
  endfacet
  facet normal 0 0 1
    outer loop
      vertex 6.6 5.5 5.6
      vertex 0.5 5 5.6
      vertex 6.6 5 5.6
    endloop
  endfacet
  facet normal 0 0 1
    outer loop
      vertex 0.5 5 5.6
      vertex 0 5.5 5.6
      vertex 0.5 0.5 5.6
    endloop
  endfacet
  facet normal -0 0 1
    outer loop
      vertex 0 5.5 5.6
      vertex 0.5 5 5.6
      vertex 6.6 5.5 5.6
    endloop
  endfacet
  facet normal 0 0 1
    outer loop
      vertex 17.2 5.5 5.6
      vertex 16.7 5 5.6
      vertex 17.2 0 5.6
    endloop
  endfacet
  facet normal -0 0 1
    outer loop
      vertex 10.6 5.5 5.6
      vertex 16.7 5 5.6
      vertex 17.2 5.5 5.6
    endloop
  endfacet
  facet normal 0 0 1
    outer loop
      vertex 16.7 5 5.6
      vertex 10.6 5.5 5.6
      vertex 10.6 5 5.6
    endloop
  endfacet
  facet normal -0 0 1
    outer loop
      vertex 16.7 0.5 5.6
      vertex 17.2 0 5.6
      vertex 16.7 5 5.6
    endloop
  endfacet
  facet normal -0 0 1
    outer loop
      vertex 0.5 0.5 5.6
      vertex 17.2 0 5.6
      vertex 16.7 0.5 5.6
    endloop
  endfacet
  facet normal 0 0 1
    outer loop
      vertex 0.5 0.5 5.6
      vertex 0 0 5.6
      vertex 17.2 0 5.6
    endloop
  endfacet
  facet normal 0 0 1
    outer loop
      vertex 0 0 5.6
      vertex 0.5 0.5 5.6
      vertex 0 5.5 5.6
    endloop
  endfacet
  facet normal 1 -0 0
    outer loop
      vertex 17.2 0 5.6
      vertex 17.2 5.5 0
      vertex 17.2 5.5 5.6
    endloop
  endfacet
  facet normal 1 0 0
    outer loop
      vertex 17.2 5.5 0
      vertex 17.2 0 5.6
      vertex 17.2 0 0
    endloop
  endfacet
  facet normal 0 0 -1
    outer loop
      vertex 0 0 0
      vertex 17.2 5.5 0
      vertex 17.2 0 0
    endloop
  endfacet
  facet normal -0 0 -1
    outer loop
      vertex 17.2 5.5 0
      vertex 0 0 0
      vertex 0 5.5 0
    endloop
  endfacet
  facet normal 0 -1 0
    outer loop
      vertex 0 0 0
      vertex 17.2 0 5.6
      vertex 0 0 5.6
    endloop
  endfacet
  facet normal 0 -1 -0
    outer loop
      vertex 17.2 0 5.6
      vertex 0 0 0
      vertex 17.2 0 0
    endloop
  endfacet
  facet normal 0 1 0
    outer loop
      vertex 17.2 5.5 5.6
      vertex 10.6 5.5 2
      vertex 10.6 5.5 5.6
    endloop
  endfacet
  facet normal 0 1 0
    outer loop
      vertex 10.6 5.5 2
      vertex 17.2 5.5 0
      vertex 6.6 5.5 2
    endloop
  endfacet
  facet normal 0 1 -0
    outer loop
      vertex 17.2 5.5 0
      vertex 10.6 5.5 2
      vertex 17.2 5.5 5.6
    endloop
  endfacet
  facet normal 0 1 -0
    outer loop
      vertex 6.6 5.5 2
      vertex 0 5.5 5.6
      vertex 6.6 5.5 5.6
    endloop
  endfacet
  facet normal 0 1 0
    outer loop
      vertex 6.6 5.5 2
      vertex 0 5.5 0
      vertex 0 5.5 5.6
    endloop
  endfacet
  facet normal 0 1 0
    outer loop
      vertex 0 5.5 0
      vertex 6.6 5.5 2
      vertex 17.2 5.5 0
    endloop
  endfacet
endsolid OpenSCAD_Model
